<svg xmlns="http://www.w3.org/2000/svg" xmlns:xlink="http://www.w3.org/1999/xlink"><defs><symbol viewBox="0 0 32 32" id="default"><rect height="32" width="32" /></symbol><symbol viewBox="0 0 950 1024" id="email">
  <title>email</title>
  <path d="M1073.01,354.61,681.99,138.76a87.311,87.311,0,0,0-83.98,0L206.99,354.61C181.01,368.95,165,395.46,165,424.15v431.7c0,28.69,16.01,55.2,41.99,69.54l391.02,215.85a87.311,87.311,0,0,0,83.98,0l391.02-215.85c25.98-14.34,41.99-40.85,41.99-69.54V424.15C1115,395.46,1098.99,368.95,1073.01,354.61ZM906.667,806.667A33.431,33.431,0,0,1,873.333,840H406.667a33.431,33.431,0,0,1-33.334-33.333V573.333L606.667,695.467c16.666,8.066,24.466,11.2,33.333,11.2s16.667-3.134,33.333-11.2L906.667,573.333Zm0-308.067L640,638.767,373.333,498.6V473.333A33.431,33.431,0,0,1,406.667,440H873.333a33.431,33.431,0,0,1,33.334,33.333Z" transform="translate(-165 -128)" />
</symbol><symbol viewBox="0 0 950 1024" id="github">
  <title>github</title>
  <path d="M1073.01,354.61,681.99,138.76a87.311,87.311,0,0,0-83.98,0L206.99,354.61C181.01,368.95,165,395.46,165,424.15v431.7c0,28.69,16.01,55.2,41.99,69.54l391.02,215.85a87.311,87.311,0,0,0,83.98,0l391.02-215.85c25.98-14.34,41.99-40.85,41.99-69.54V424.15C1115,395.46,1098.99,368.95,1073.01,354.61ZM707.389,758.079c13.2,11.365,24.879,33.649,24.879,67.835,0,49-.493,88.509-.493,100.59,0,9.755,15.125,36.6-90.835,36.6-110.255,0-90.857-26.983-90.857-36.648,0-8.726-.336-37.631-.515-68.238C447.636,880.37,426.09,815,426.09,815c-16.69-42.33-40.7-53.606-40.7-53.606-33.313-22.731,2.527-22.284,2.527-22.284,36.8,2.551,56.18,37.766,56.18,37.766C476.81,832.9,529.924,816.7,550.776,807.3c3.332-23.626,12.818-39.824,23.268-48.953-81.371-9.262-166.971-40.719-166.971-181.178,0-40.049,14.3-72.713,37.7-98.375-3.736-9.307-16.355-46.6,3.624-97.054,0,0,30.741-9.845,100.813,37.586a347.023,347.023,0,0,1,183.506.045c69.939-47.476,100.724-37.587,100.724-37.587,20.047,50.5,7.428,87.747,3.669,97.01,23.492,25.662,37.677,58.327,37.677,98.375C874.785,717.986,789.051,749,707.389,758.079Z" transform="translate(-165 -128)" />
</symbol><symbol viewBox="0 0 950 1024" id="twitter">
  <title>twitter</title>
  <path d="M1073.01,354.61,681.99,138.76a87.311,87.311,0,0,0-83.98,0L206.99,354.61C181.01,368.95,165,395.46,165,424.15v431.7c0,28.69,16.01,55.2,41.99,69.54l391.02,215.85a87.311,87.311,0,0,0,83.98,0l391.02-215.85c25.98-14.34,41.99-40.85,41.99-69.54V424.15C1115,395.46,1098.99,368.95,1073.01,354.61ZM883.428,533.781q.337,7.725.332,15.531C883.76,707.78,763.153,890.5,542.573,890.5a339.34,339.34,0,0,1-183.824-53.879,241.972,241.972,0,0,0,177.535-49.654,120.048,120.048,0,0,1-112.017-83.28,118.817,118.817,0,0,0,22.568,2.159,120.567,120.567,0,0,0,31.6-4.2,120.01,120.01,0,0,1-96.2-117.581c0-.51,0-1.021.012-1.519a119.573,119.573,0,0,0,54.318,15.009,120.067,120.067,0,0,1-37.114-160.1A340.485,340.485,0,0,0,646.628,562.744,119.979,119.979,0,0,1,850.953,453.373,240.04,240.04,0,0,0,927.1,424.256a120.129,120.129,0,0,1-52.727,66.349,238.611,238.611,0,0,0,68.876-18.877A242.882,242.882,0,0,1,883.428,533.781Z" transform="translate(-165 -128)" />
</symbol></defs></svg>