<svg xmlns="http://www.w3.org/2000/svg" xmlns:xlink="http://www.w3.org/1999/xlink"><defs><symbol viewBox="0 0 1024 1024" id="brand-logo">
  <path class="cog" d="M698 215c20 6 89 12 103 28 16 20 6 75 14 101 13 41 36 52 66 52 29 0 63-10 100-15 17 30 53 70 47 101-12 55-77 69-72 132l109 84c-6 20-12 89-28 103-20 16-76 6-101 14-80 26-47 90-37 166-17 10-68 53-90 53h-2c-25-2-57-49-81-61-15-7-28-11-39-11-46 0-68 54-105 102-20-5-89-11-103-27-16-20-5-75-14-100-13-41-37-53-67-53-28 0-62 10-99 15-10-17-55-71-53-92 2-25 48-57 60-80 38-76-30-98-91-145 6-20 12-89 28-103 20-16 74-6 100-14 80-26 48-90 38-166 17-10 68-53 90-53h2c25 2 57 48 80 60 16 8 29 11 40 11 46 0 67-53 105-102m-30-87l-78 106-2 3-13-13c-24-23-53-51-95-55h-9c-49 0-173 89-173 89l20 134h-18c-33 1-74 1-106 29-24 19-34 48-40 71l-26 120 109 80-13 14c-23 23-51 52-55 94-3 31 11 59 23 79l66 103 134-21v19c1 33 1 74 29 106 20 24 48 34 71 40l120 26 80-109 13 12c24 23 53 52 96 56h8c37 0 71-22 114-53l59-36-21-134h18c34-1 75-1 107-29 24-20 34-49 40-71l26-120-103-79c19-19 45-48 54-92 11-54-20-101-43-136l-38-63-134 21v-19c-1-33-1-74-29-106-20-24-48-34-71-40l-120-26z" transform="translate(-128 -128)" />
  <g class="mark">
    <path d="M695 599a14 14 0 0 1-1 0H586a14 14 0 0 1-14-14V451a14 14 0 0 0-14-14h-40a81 81 0 0 0-81 81v244a81 81 0 0 0 81 81h40a14 14 0 0 0 14-14V695a14 14 0 0 1 14-14h108a14 14 0 0 1 14 14v134a14 14 0 0 0 14 14h40a81 81 0 0 0 81-81 36 36 0 0 0-10-25zM829 626a8 8 0 0 0 14-6V518a81 81 0 0 0-81-81h-40a14 14 0 0 0-14 14v39a35 35 0 0 0 10 25z" transform="translate(-128 -128)" />
  </g>
</symbol><symbol viewBox="0 0 1024 1024" id="brand-logo-colored">
  <path class="cog" d="M698 215c20 6 89 12 103 28 16 20 6 75 14 101 13 41 36 52 66 52 29 0 63-10 100-15 17 30 53 70 47 101-12 55-77 69-72 132l109 84c-6 20-12 89-28 103-20 16-76 6-101 14-80 26-47 90-37 166-17 10-68 53-90 53h-2c-25-2-57-49-81-61-15-7-28-11-39-11-46 0-68 54-105 102-20-5-89-11-103-27-16-20-5-75-14-100-13-41-37-53-67-53-28 0-62 10-99 15-10-17-55-71-53-92 2-25 48-57 60-80 38-76-30-98-91-145 6-20 12-89 28-103 20-16 74-6 100-14 80-26 48-90 38-166 17-10 68-53 90-53h2c25 2 57 48 80 60 16 8 29 11 40 11 46 0 67-53 105-102m-30-87l-78 106-2 3-13-13c-24-23-53-51-95-55h-9c-49 0-173 89-173 89l20 134h-18c-33 1-74 1-106 29-24 19-34 48-40 71l-26 120 109 80-13 14c-23 23-51 52-55 94-3 31 11 59 23 79l66 103 134-21v19c1 33 1 74 29 106 20 24 48 34 71 40l120 26 80-109 13 12c24 23 53 52 96 56h8c37 0 71-22 114-53l59-36-21-134h18c34-1 75-1 107-29 24-20 34-49 40-71l26-120-103-79c19-19 45-48 54-92 11-54-20-101-43-136l-38-63-134 21v-19c-1-33-1-74-29-106-20-24-48-34-71-40l-120-26z" transform="translate(-128 -128)" fill="#a06ed5" />
  <g class="mark">
    <path d="M695 599a14 14 0 0 1-1 0H586a14 14 0 0 1-14-14V451a14 14 0 0 0-14-14h-40a81 81 0 0 0-81 81v244a81 81 0 0 0 81 81h40a14 14 0 0 0 14-14V695a14 14 0 0 1 14-14h108a14 14 0 0 1 14 14v134a14 14 0 0 0 14 14h40a81 81 0 0 0 81-81 36 36 0 0 0-10-25z" transform="translate(-128 -128)" fill="#5898e9" />
    <path d="M829 626a8 8 0 0 0 14-6V518a81 81 0 0 0-81-81h-40a14 14 0 0 0-14 14v39a35 35 0 0 0 10 25z" transform="translate(-128 -128)" fill="#a06ed5" />
  </g>
</symbol><symbol viewBox="0 0 32 32" id="default"><rect height="32" width="32" /></symbol><symbol viewBox="0 0 950 1024" id="email">
  <title>email</title>
  <path d="M1073.01,354.61,681.99,138.76a87.311,87.311,0,0,0-83.98,0L206.99,354.61C181.01,368.95,165,395.46,165,424.15v431.7c0,28.69,16.01,55.2,41.99,69.54l391.02,215.85a87.311,87.311,0,0,0,83.98,0l391.02-215.85c25.98-14.34,41.99-40.85,41.99-69.54V424.15C1115,395.46,1098.99,368.95,1073.01,354.61ZM906.667,806.667A33.431,33.431,0,0,1,873.333,840H406.667a33.431,33.431,0,0,1-33.334-33.333V573.333L606.667,695.467c16.666,8.066,24.466,11.2,33.333,11.2s16.667-3.134,33.333-11.2L906.667,573.333Zm0-308.067L640,638.767,373.333,498.6V473.333A33.431,33.431,0,0,1,406.667,440H873.333a33.431,33.431,0,0,1,33.334,33.333Z" transform="translate(-165 -128)" />
</symbol><symbol viewBox="0 0 950 1024" id="github">
  <title>github</title>
  <path d="M1073.01,354.61,681.99,138.76a87.311,87.311,0,0,0-83.98,0L206.99,354.61C181.01,368.95,165,395.46,165,424.15v431.7c0,28.69,16.01,55.2,41.99,69.54l391.02,215.85a87.311,87.311,0,0,0,83.98,0l391.02-215.85c25.98-14.34,41.99-40.85,41.99-69.54V424.15C1115,395.46,1098.99,368.95,1073.01,354.61ZM707.389,758.079c13.2,11.365,24.879,33.649,24.879,67.835,0,49-.493,88.509-.493,100.59,0,9.755,15.125,36.6-90.835,36.6-110.255,0-90.857-26.983-90.857-36.648,0-8.726-.336-37.631-.515-68.238C447.636,880.37,426.09,815,426.09,815c-16.69-42.33-40.7-53.606-40.7-53.606-33.313-22.731,2.527-22.284,2.527-22.284,36.8,2.551,56.18,37.766,56.18,37.766C476.81,832.9,529.924,816.7,550.776,807.3c3.332-23.626,12.818-39.824,23.268-48.953-81.371-9.262-166.971-40.719-166.971-181.178,0-40.049,14.3-72.713,37.7-98.375-3.736-9.307-16.355-46.6,3.624-97.054,0,0,30.741-9.845,100.813,37.586a347.023,347.023,0,0,1,183.506.045c69.939-47.476,100.724-37.587,100.724-37.587,20.047,50.5,7.428,87.747,3.669,97.01,23.492,25.662,37.677,58.327,37.677,98.375C874.785,717.986,789.051,749,707.389,758.079Z" transform="translate(-165 -128)" />
</symbol><symbol viewBox="0 0 1024 769" id="tool-config-vars-logo">
  <path d="M814 121h26V30L810 0H302l-29 30v77h-98l-19-34H86l-34 59 34 58h70l19-32h98v202h-98l-32-56H48L0 385l48 80h95l32-54h98v202h-98l-19-34H86l-34 59 34 58h70l19-32h98v76l29 29h508l30-29v-92h-52v70H324V51h464v70h26z" />
  <path d="M670 613h57v51h-57zM386 613h231v51H386zM549 486H386v52h191l-28-52zM489 360h98v51h-98zM386 360h51v51h-51zM577 233H386v52h164l27-52zM521 107h206v51H521zM386 107h74v51h-74zM1022 301l2-12-27-41-12-4-49 16-75-41-9-36-10-8h-56l-9 8-9 36-75 41-49-16-12 4-27 41 2 12 34 32v104l-34 31-2 13 27 41 12 3 49-16 75 42 9 36 9 7h56l10-7 9-36 75-42 49 16 12-3 27-41-2-13-34-31V333zM909 437l-95 52-94-52V333l94-53 95 53z" />
  <path d="M856 408v-46l-42-23-41 23v46l41 23 42-23z" />
</symbol><symbol viewBox="0 0 1024 769" id="tool-config-vars-logo-colored">
  <path fill="#c6c5d3" d="M132 613h167v51H132z" />
  <path fill="#a080dd" d="M156 579H86l-34 59 34 58h70l34-58-34-59z" />
  <path fill="#c6c5d3" d="M132 360h167v51H132z" />
  <path fill="#785da3" d="M143 304H48L0 385l48 80h95l47-80-47-81z" />
  <g>
    <path fill="#c6c5d3" d="M132 107h167v51H132z" />
    <path fill="#a080dd" d="M156 73H86l-34 59 34 58h70l34-58-34-59z" />
  </g>
  <g>
    <path fill="#785da3" d="M815 648h-27v70H324V51h464v70h52V30L810 0H302l-29 30v710l29 29h508l30-29v-92h-25z" />
    <path fill="#a080dd" d="M670 613h57v51h-57z" />
    <path fill="#c4b3dd" d="M386 613h231v51H386z" />
    <path fill="#a080dd" d="M549 486H386v52h191l-28-52z" />
    <path fill="#c4b3dd" d="M489 360h98v51h-98z" />
    <path fill="#a080dd" d="M386 360h51v51h-51zM577 233H386v52h164l27-52z" />
    <path fill="#c4b3dd" d="M521 107h206v51H521z" />
    <path fill="#a080dd" d="M386 107h74v51h-74z" />
  </g>
  <g>
    <path fill="#785da3" d="M1022 301l2-12-27-41-12-4-49 16-75-41-9-36-10-8h-56l-9 8-9 36-75 41-49-16-12 4-27 41 2 12 34 32v104l-34 31-2 13 27 41 12 3 49-16 75 42 9 36 9 7h56l10-7 9-36 75-42 49 16 12-3 27-41-2-13-34-31V333zM909 437l-95 52-94-52V333l94-53 95 53z" />
    <path fill="#a080dd" d="M856 408v-46l-42-23-41 23v46l41 23 42-23z" />
  </g>
</symbol><symbol viewBox="0 0 975 1027" id="tool-maintenance-logo">
  <path d="M891 639V385l80-77 4-30-62-100-28-8-114 38-175-101-21-88-22-19H422l-22 19-21 88-175 101-114-38-28 8L0 278l4 30 80 77v254L4 716l-4 30 62 99 28 9 115-39 120 69-18 91 18 26 131 26 26-18 6-31 282-163 115 39 28-9 62-99-4-30zm-183-1L535 738l20-105c32-18 57-50 65-90 10-52-12-102-51-132l-22 108-64 22-52-45 21-108c-48 13-87 52-97 103-8 40 3 79 26 109l-19 93-95-55V384l220-128 221 128z" />
</symbol><symbol viewBox="0 0 975 1027" id="tool-maintenance-logo-colored">
  <defs>
    
  </defs>
  <g class="cog" fill="#c6c5d3">
    <path d="M891 638v107l-122 70 116 39 28-9 62-99-4-30-80-78zM84 745V638L4 716l-4 30 62 99 28 9 116-39-122-70zM84 385V278l121-70-115-38-28 8L0 278l4 30 80 77zM891 278v107l80-77 4-30-62-100-28-8-115 38 121 70zM488 44l108 63-21-88-22-19H422l-22 19-21 88 109-63z" />
  </g>
  <path d="M640 1106l403-233V405L640 172 237 405v468zM420 512l220-128 220 128v254L640 894 420 766z" transform="translate(-152 -128)" fill="url(#tool-maintenance-logo-colored_linear-gradient-xs47jfi)" />
  <path d="M381 600l-74 375 18 26 131 26 26-18 73-376c32-18 57-50 65-90 10-52-12-102-51-132l-22 108-64 22-52-45 21-108c-48 13-87 52-97 103-8 40 3 79 26 109z" fill="#8167b2" />
</symbol><linearGradient id="tool-maintenance-logo-colored_linear-gradient-xs47jfi" x1="640" y1="1108" x2="640" y2="174" gradientTransform="rotate(180 640 640)" gradientUnits="userSpaceOnUse">
      <stop offset="0" stop-color="#9a8fb7" />
      <stop offset="1" stop-color="#8167b2" />
    </linearGradient><symbol viewBox="0 0 950 1024" id="tool-noop-server-logo">
  <path class="box" d="M640 230l375 207v406l-375 207-375-207V437l375-207m0-102a87 87 0 0 0-42 11L207 355a80 80 0 0 0-42 69v432c0 29 16 55 42 69l391 216a87 87 0 0 0 84 0l391-216c26-14 42-40 42-69V424c0-29-16-55-42-69L682 139a87 87 0 0 0-42-11z" transform="translate(-165 -128)" />
  <path class="bottom" d="M200 549v113l275 151 275-151V549L475 699 200 549z" />
  <path class="middle" d="M475 515L200 364v114l275 151 275-151V364L475 515z" />
  <path class="top" d="M475 211L262 328l213 116 213-116-213-117z" />
</symbol><symbol viewBox="0 0 950 1024" id="tool-noop-server-logo-colored">
  <path class="box" d="M640 230l375 207v406l-375 207-375-207V437l375-207m0-102a87 87 0 0 0-42 11L207 355a80 80 0 0 0-42 69v432c0 29 16 55 42 69l391 216a87 87 0 0 0 84 0l391-216c26-14 42-40 42-69V424c0-29-16-55-42-69L682 139a87 87 0 0 0-42-11z" transform="translate(-165 -128)" fill="#67508c" />
  <path class="bottom" fill="#a18fcc" d="M200 549v113l275 151 275-151V549L475 699 200 549z" />
  <path class="middle" fill="#c0bad8" d="M475 515L200 364v114l275 151 275-151V364L475 515z" />
  <path class="top" fill="#e7e6ed" d="M475 211L262 328l213 116 213-116-213-117z" />
</symbol><symbol viewBox="0 0 950 1024" id="twitter">
  <title>twitter</title>
  <path d="M1073.01,354.61,681.99,138.76a87.311,87.311,0,0,0-83.98,0L206.99,354.61C181.01,368.95,165,395.46,165,424.15v431.7c0,28.69,16.01,55.2,41.99,69.54l391.02,215.85a87.311,87.311,0,0,0,83.98,0l391.02-215.85c25.98-14.34,41.99-40.85,41.99-69.54V424.15C1115,395.46,1098.99,368.95,1073.01,354.61ZM883.428,533.781q.337,7.725.332,15.531C883.76,707.78,763.153,890.5,542.573,890.5a339.34,339.34,0,0,1-183.824-53.879,241.972,241.972,0,0,0,177.535-49.654,120.048,120.048,0,0,1-112.017-83.28,118.817,118.817,0,0,0,22.568,2.159,120.567,120.567,0,0,0,31.6-4.2,120.01,120.01,0,0,1-96.2-117.581c0-.51,0-1.021.012-1.519a119.573,119.573,0,0,0,54.318,15.009,120.067,120.067,0,0,1-37.114-160.1A340.485,340.485,0,0,0,646.628,562.744,119.979,119.979,0,0,1,850.953,453.373,240.04,240.04,0,0,0,927.1,424.256a120.129,120.129,0,0,1-52.727,66.349,238.611,238.611,0,0,0,68.876-18.877A242.882,242.882,0,0,1,883.428,533.781Z" transform="translate(-165 -128)" />
</symbol></defs></svg>